<svg width="65" height="26" viewBox="0 0 65 26" fill="none" xmlns="http://www.w3.org/2000/svg">
<path d="M12.2924 18.152V19.976H0.724375V5.024H12.2924V6.848H2.64438V11.12H11.0444V12.944H2.64438V18.152H12.2924ZM23.0193 9.104H25.1553L20.0193 19.976H17.8833L12.7713 9.104H14.9073L18.9633 18.032L23.0193 9.104ZM35.9039 12.584L28.0079 17.096C28.7119 17.8 29.5599 18.152 30.5519 18.152C31.3519 18.152 32.0879 17.904 32.7599 17.408C33.4479 16.912 34.0399 16.272 34.5359 15.488C35.3999 14.096 36.1839 12.992 36.8879 12.176V9.104H38.8079V10.472C39.8479 9.496 41.0479 8.984 42.4079 8.936C44.1999 8.872 45.5119 9.384 46.3439 10.472C47.1919 11.56 47.6159 12.936 47.6159 14.6V20.048H45.6959V14.6C45.6959 11.992 44.5999 10.736 42.4079 10.832C41.2399 10.88 40.1759 11.424 39.2159 12.464C38.2719 13.488 37.3359 14.736 36.4079 16.208C36.2159 16.544 36.0799 16.768 35.9999 16.88C35.3279 17.888 34.5519 18.688 33.6719 19.28C32.7919 19.856 31.7519 20.144 30.5519 20.144C29.5279 20.144 28.5839 19.896 27.7199 19.4C26.8719 18.888 26.1919 18.208 25.6799 17.36C25.1839 16.496 24.9359 15.56 24.9359 14.552C24.9359 13.528 25.1839 12.592 25.6799 11.744C26.1919 10.88 26.8719 10.2 27.7199 9.704C28.5839 9.192 29.5279 8.936 30.5519 8.936C31.8639 8.936 32.9919 9.336 33.9359 10.136C34.3839 10.504 34.8239 11.008 35.2559 11.648C35.6879 12.272 35.9039 12.584 35.9039 12.584ZM27.0719 15.536L33.1679 12.08C32.4479 11.328 31.5759 10.952 30.5519 10.952C29.5439 10.952 28.6879 11.304 27.9839 12.008C27.2959 12.712 26.9519 13.56 26.9519 14.552C26.9519 14.888 26.9919 15.216 27.0719 15.536ZM38.0879 14.84C38.5679 14.2 38.8079 13.88 38.8079 13.88V19.976H36.8879V16.784C37.2239 16.112 37.6239 15.464 38.0879 14.84ZM49.0291 19.976V5.024H50.9491V19.976H49.0291ZM57.2164 24.056H55.0804L57.0004 19.976L51.8884 9.104H54.0244L58.0084 17.864L62.1364 9.104H64.2724L59.4004 19.424L57.2164 24.056Z" fill="#1E40AF"/>
</svg>
