<svg width="43" height="13" viewBox="0 0 43 13" fill="none" xmlns="http://www.w3.org/2000/svg">
<path d="M8.02825 8.768V9.984H0.31625V0.0159998H8.02825V1.232H1.59625V4.08H7.19625V5.296H1.59625V8.768H8.02825ZM15.1795 2.736H16.6035L13.1795 9.984H11.7555L8.3475 2.736H9.7715L12.4755 8.688L15.1795 2.736ZM23.7693 5.056L18.5053 8.064C18.9746 8.53333 19.5399 8.768 20.2013 8.768C20.7346 8.768 21.2253 8.60267 21.6733 8.272C22.1319 7.94133 22.5266 7.51467 22.8573 6.992C23.4333 6.064 23.9559 5.328 24.4253 4.784V2.736H25.7053V3.648C26.3986 2.99733 27.1986 2.656 28.1053 2.624C29.2999 2.58133 30.1746 2.92267 30.7293 3.648C31.2946 4.37333 31.5773 5.29067 31.5773 6.4V10.032H30.2973V6.4C30.2973 4.66133 29.5666 3.824 28.1053 3.888C27.3266 3.92 26.6173 4.28267 25.9773 4.976C25.3479 5.65867 24.7239 6.49067 24.1053 7.472C23.9773 7.696 23.8866 7.84533 23.8333 7.92C23.3853 8.592 22.8679 9.12533 22.2813 9.52C21.6946 9.904 21.0013 10.096 20.2013 10.096C19.5186 10.096 18.8893 9.93067 18.3133 9.6C17.7479 9.25867 17.2946 8.80533 16.9533 8.24C16.6226 7.664 16.4573 7.04 16.4573 6.368C16.4573 5.68533 16.6226 5.06133 16.9533 4.496C17.2946 3.92 17.7479 3.46667 18.3133 3.136C18.8893 2.79467 19.5186 2.624 20.2013 2.624C21.0759 2.624 21.8279 2.89067 22.4573 3.424C22.7559 3.66933 23.0493 4.00533 23.3373 4.432C23.6253 4.848 23.7693 5.056 23.7693 5.056ZM17.8813 7.024L21.9453 4.72C21.4653 4.21867 20.8839 3.968 20.2013 3.968C19.5293 3.968 18.9586 4.20267 18.4893 4.672C18.0306 5.14133 17.8013 5.70667 17.8013 6.368C17.8013 6.592 17.8279 6.81067 17.8813 7.024ZM25.2253 6.56C25.5453 6.13333 25.7053 5.92 25.7053 5.92V9.984H24.4253V7.856C24.6493 7.408 24.9159 6.976 25.2253 6.56ZM32.5194 9.984V0.0159998H33.7994V9.984H32.5194ZM37.9776 12.704H36.5536L37.8336 9.984L34.4256 2.736H35.8496L38.5056 8.576L41.2576 2.736H42.6816L39.4336 9.616L37.9776 12.704Z" fill="#1E40AF"/>
</svg>
